# xmcd
# 
# Track frame offsets:
#     150
#     16418
#     36364
#     53396
#     72445
#     85958
#     105442
#     128616
#     139550
#     164947
#     198760
#     213501
#     237842
#     261282
#     283885
#     305673
#     319282
# 
# Disc length: 4600
# 
# Revision: 1
# Processed by: cddbd v1.5.2PL0 Copyright (c) Steve Scherf et al.
# Submitted via: fre:ac v1.0.31
# 
DISCID=f911f611
DTITLE=Ronnie Lane - Ain't No One Like Ronnie Lane CD2
DYEAR=1974
DGENRE=Acoustic
TTITLE0=Amelia Earhart's last flight
TTITLE1=Chicken wired
TTITLE2=Anymore for anymore
TTITLE3=How come
TTITLE4=Give me a penny
TTITLE5=Tin and tambourine
TTITLE6=You can never tell
TTITLE7=A little piece of nothing
TTITLE8=Annie had a baby
TTITLE9=Debris
TTITLE10=You're so rude
TTITLE11=Man smart woman smarter
TTITLE12=One for the road
TTITLE13=Stone
TTITLE14=Sweet Virginia
TTITLE15=Bombers moon
TTITLE16=Don't you cry for me
EXTD=
EXTT0=
EXTT1=
EXTT2=
EXTT3=
EXTT4=
EXTT5=
EXTT6=
EXTT7=
EXTT8=
EXTT9=
EXTT10=
EXTT11=
EXTT12=
EXTT13=
EXTT14=
EXTT15=
EXTT16=
PLAYORDER=
